Coordinates
version=1
nRows=23
nColumns=30
inDegrees=yes

Units are S.I. units (second, meters, Newtons, ...)
Angles are in degrees.

endheader
time	floatyaw	floatroll	floatpitch	floatx	floaty	floatz	pro_sup_l	deviation_l	flexion_l	cmc_flexion_l	cmc_abduction_l	mp_flexion_l	ip_flexion_l	2mcp_flexion_l	2mcp_abduction_l	2pm_flexion_l	2md_flexion_l	3mcp_flexion_l	3mcp_abduction_l	3pm_flexion_l	3md_flexion_l	4mcp_flexion_l	4mcp_abduction_l	4pm_flexion_l	4md_flexion_l	5mcp_flexion_l	5mcp_abduction_l	5pm_flexion_l	5md_flexion_l
-0.495000	-1.071121	-4.178315	93.848517	0.033244	-0.243407	0.043228	87.309690	8.963884	5.163318	8.782560	14.394348	-14.900559	-17.005915	35.514561	7.496007	23.145767	16.739623	24.774726	5.716500	27.284532	22.791970	11.904034	-3.742822	44.474938	32.677689	-0.653662	-8.962074	46.302690	38.567558
-0.485000	-1.071121	-4.178315	93.848517	0.037497	-0.241877	0.047598	87.264838	9.581920	5.876261	7.686903	15.219742	-14.794808	-16.447185	36.761349	7.555593	22.680059	16.503424	26.080110	5.753412	26.824130	22.899194	13.155716	-3.697085	43.947751	32.701536	0.917356	-8.943437	45.154041	37.894422
-0.475000	-1.071121	-4.178315	93.848517	0.041966	-0.240463	0.052102	87.262235	10.259733	6.616853	6.619359	16.034649	-14.716853	-15.971765	37.984923	7.608485	22.284512	16.295632	27.392842	5.777683	26.430121	23.040911	14.465460	-3.653350	43.428863	32.804674	2.467684	-8.882031	44.118698	37.291608
-0.465000	-1.071121	-4.178315	93.848517	0.046629	-0.239195	0.056695	87.341080	11.006970	7.363494	5.584687	16.816970	-14.645078	-15.566845	39.137832	7.675150	21.980941	16.109218	28.709925	5.796937	26.100813	23.216155	15.804938	-3.618992	42.956981	33.033238	3.921853	-8.782155	43.306964	36.823889
-0.455000	-1.071121	-4.178315	93.848517	0.051465	-0.238070	0.061377	87.549566	11.820238	8.100631	4.591250	17.545916	-14.563382	-15.214409	40.198734	7.770895	21.766731	15.935150	30.030193	5.820181	25.819664	23.423944	17.136539	-3.601285	42.555532	33.420920	5.215708	-8.655908	42.787917	36.540038
-0.445000	-1.071121	-4.178315	93.848517	0.056447	-0.237075	0.066172	87.928189	12.683527	8.821486	3.653386	18.210539	-14.467899	-14.901700	41.170670	7.900384	21.627938	15.774019	31.338131	5.855157	25.574134	23.671390	18.418549	-3.603563	42.233772	33.974111	6.311246	-8.524482	42.569221	36.461056
-0.435000	-1.071121	-4.178315	93.848517	0.061543	-0.236206	0.071101	88.493223	13.571280	9.526768	2.789131	18.817167	-14.365767	-14.624910	42.065726	8.057663	21.556983	15.645504	32.594517	5.906354	25.372286	23.977119	19.612965	-3.624141	41.995449	34.662775	7.202702	-8.413851	42.602775	36.577616
-0.425000	-1.071121	-4.178315	93.848517	0.066712	-0.235481	0.076158	89.229597	14.453220	10.220449	2.013484	19.391768	-14.267758	-14.384984	42.889671	8.230835	21.561197	15.587201	33.742876	5.973876	25.246137	24.366855	20.695285	-3.658040	41.847190	35.424110	7.912461	-8.346573	42.812356	36.857010
-0.415000	-1.071121	-4.178315	93.848517	0.071918	-0.234935	0.081308	90.097132	15.300380	10.904685	1.330911	19.975306	-14.180468	-14.180790	43.637352	8.407713	21.657008	15.641534	34.730718	6.053457	25.238034	24.862854	21.663167	-3.699934	41.800327	36.180946	8.477365	-8.334186	43.129385	37.257541
-0.405000	-1.071121	-4.178315	93.848517	0.077134	-0.234603	0.086503	91.046504	16.091331	11.577046	0.731803	20.612707	-14.103439	-14.005965	44.298920	8.579210	21.855480	15.838212	35.533504	6.138098	25.377275	25.473242	22.537835	-3.746688	41.866238	36.868720	8.931311	-8.373991	43.518622	37.744566
-0.395000	-1.071121	-4.178315	93.848517	0.082348	-0.234508	0.091702	92.036430	16.816714	12.232030	0.195379	21.339280	-14.032262	-13.851571	44.868713	8.739929	22.150191	16.182748	36.166006	6.221115	25.661392	26.188575	23.353588	-3.798615	42.050814	37.459141	9.294537	-8.451391	43.981054	38.300451
-0.385000	-1.071121	-4.178315	93.848517	0.087548	-0.234653	0.096876	93.044145	17.479941	12.865703	-0.302243	22.170664	-13.964120	-13.711598	45.349363	8.887379	22.515600	16.656827	36.673885	6.299195	26.053970	26.988793	24.138804	-3.858905	42.353259	37.969261	9.576474	-8.546461	44.534715	38.923810
-0.375000	-1.071121	-4.178315	93.848517	0.092719	-0.235031	0.101999	94.065941	18.093179	13.480569	-0.779122	23.100742	-13.901047	-13.586488	45.749967	9.021325	22.916164	17.228005	37.111638	6.373473	26.500081	27.855849	24.900018	-3.931144	42.768896	38.450979	9.788814	-8.641990	45.187049	39.619815
-0.365000	-1.071121	-4.178315	93.848517	0.097835	-0.235631	0.107051	95.109705	18.670012	14.088490	-1.242506	24.106831	-13.848736	-13.481729	46.081805	9.143559	23.319853	17.861395	37.520978	6.447750	26.949335	28.781918	25.620925	-4.016000	43.290635	38.964744	9.957257	-8.729655	45.916303	40.388192
-0.355000	-1.071121	-4.178315	93.848517	0.102864	-0.236436	0.112009	96.184103	19.217981	14.710590	-1.689949	25.157572	-13.812386	-13.402509	46.354952	9.257556	23.708531	18.527302	37.921059	6.525096	27.373252	29.766027	26.278570	-4.109302	43.904889	39.549087	10.121933	-8.811550	46.672221	41.215401
-0.345000	-1.071121	-4.178315	93.848517	0.107780	-0.237423	0.116855	97.289091	19.734265	15.373238	-2.114987	26.219580	-13.792863	-13.348304	46.576803	9.367517	24.081088	19.203603	38.312166	6.605220	27.769277	30.801716	26.866323	-4.203333	44.584772	40.201052	10.326616	-8.896346	47.393501	42.073635
-0.335000	-1.071121	-4.178315	93.848517	0.112565	-0.238557	0.121568	98.411367	20.206324	16.100056	-2.513521	27.262137	-13.785791	-13.311299	46.752151	9.476953	24.449674	19.875520	38.686125	6.684146	28.152873	31.866660	27.407130	-4.290865	45.289394	40.878586	10.606025	-8.992265	48.030347	42.925951
-0.325000	-1.071121	-4.178315	93.848517	0.117205	-0.239800	0.126126	99.526615	20.617181	16.902193	-2.887082	28.261059	-13.784093	-13.279843	46.884473	9.587426	24.831976	20.535858	39.035337	6.755966	28.544811	32.924342	27.946644	-4.369152	45.975401	41.524273	10.979924	-9.101191	48.560708	43.735562
-0.315000	-1.071121	-4.178315	93.848517	0.121688	-0.241123	0.130501	100.607510	20.953032	17.771612	-3.241319	29.201800	-13.782449	-13.244774	46.978180	9.698092	25.242966	21.186268	39.357004	6.815248	28.960669	33.938291	28.530530	-4.440972	46.616401	42.096430	11.454450	-9.217367	48.995126	44.476365
-0.305000	-1.071121	-4.178315	93.848517	0.125990	-0.242524	0.134666	101.633427	21.209818	18.681783	-3.581264	30.080165	-13.780986	-13.204686	47.041034	9.806209	25.688666	21.837320	39.653753	6.858823	29.405898	34.889523	29.181702	-4.512070	47.217235	42.588524	12.025061	-9.330819	49.370937	45.140300
-0.295000	-1.071121	-4.178315	93.848517	0.130087	-0.244014	0.138601	102.596856	21.395942	19.596276	-3.907316	30.899406	-13.785859	-13.166756	47.085336	9.908246	26.163440	22.504800	39.932762	6.886408	29.876212	35.785455	29.892158	-4.586955	47.812024	43.026634	12.677422	-9.432593	49.739362	45.737657
-0.285000	-1.071121	-4.178315	93.848517	0.133962	-0.245612	0.142298	103.503511	21.530145	20.480821	-4.215214	31.665085	-13.806106	-13.142555	47.126588	10.000949	26.651449	23.202430	40.203727	6.900186	30.361300	36.654854	30.632349	-4.665979	48.446388	43.450165	13.388273	-9.518546	50.149604	46.289929
-0.275000	-1.071121	-4.178315	93.848517	0.137605	-0.247326	0.145762	104.367031	21.635937	21.312295	-4.499764	32.381038	-13.848392	-13.141417	47.179412	10.082062	27.132122	23.934391	40.475213	6.903819	30.849840	37.532502	31.369239	-4.745513	49.155108	43.890222	14.129945	-9.590155	50.634046	46.819031
